<svg id="bold" enable-background="new 0 0 24 24" height="512" viewBox="0 0 24 24" width="512" xmlns="http://www.w3.org/2000/svg"><path d="m12.25 6h-6.5c-.965 0-1.75-.785-1.75-1.75v-1.5c0-.414.336-.75.75-.75h1.604c.328-1.153 1.389-2 2.646-2s2.318.847 2.646 2h1.604c.414 0 .75.336.75.75v1.5c0 .965-.785 1.75-1.75 1.75z"/><path d="m22 21c-.189 0-.362-.107-.447-.276l-1.289-2.578c-.173-.346-.264-.732-.264-1.118v-9.028c0-1.103.897-2 2-2s2 .897 2 2v9.028c0 .386-.091.772-.264 1.118l-1.289 2.578c-.085.169-.258.276-.447.276zm1.289-3.078h.01z"/><path d="m15.25 3h-.25v1.25c0 1.517-1.233 2.75-2.75 2.75h-6.5c-1.517 0-2.75-1.233-2.75-2.75v-1.25h-.25c-1.517 0-2.75 1.233-2.75 2.75v15.5c0 1.517 1.233 2.75 2.75 2.75h12.5c1.517 0 2.75-1.233 2.75-2.75v-15.5c0-1.517-1.233-2.75-2.75-2.75zm-1 18h-10.5c-.414 0-.75-.336-.75-.75s.336-.75.75-.75h10.5c.414 0 .75.336.75.75s-.336.75-.75.75zm0-3h-10.5c-.414 0-.75-.336-.75-.75s.336-.75.75-.75h10.5c.414 0 .75.336.75.75s-.336.75-.75.75zm0-3h-10.5c-.414 0-.75-.336-.75-.75s.336-.75.75-.75h10.5c.414 0 .75.336.75.75s-.336.75-.75.75zm0-3h-10.5c-.414 0-.75-.336-.75-.75s.336-.75.75-.75h10.5c.414 0 .75.336.75.75s-.336.75-.75.75z"/></svg>